<svg xmlns="http://www.w3.org/2000/svg" xmlns:xlink="http://www.w3.org/1999/xlink" version="1.1" x="0px" y="0px" viewBox="0 0 100 125" style="enable-background:new 0 0 100 100;" xml:space="preserve"><path d="M62.1,59.8c-3.7,0-6.9,1.6-9.1,4.2l-17-8.8c0.8-1.6,1.2-3.4,1.2-5.3s-0.5-3.7-1.2-5.3l17-8.8  c2.2,2.6,5.5,4.2,9.1,4.2c6.6,0,12.1-5.4,12.1-12.1c0-6.6-5.4-12.1-12.1-12.1S50,21.5,50,28.1c0,1.6,0.3,3,0.8,4.4l-17.3,8.9  c-2.2-2.2-5.2-3.5-8.5-3.5c-6.5,0-12,5.5-12,12.1s5.4,12.1,12.1,12.1c3.3,0,6.3-1.3,8.5-3.5l17.3,8.9c-0.5,1.4-0.8,2.8-0.8,4.4  c0,6.6,5.4,12.1,12.1,12.1s12.1-5.4,12.1-12.1S68.7,59.8,62.1,59.8z M62.1,20.1c4.4,0,8.1,3.6,8.1,8.1c0,4.4-3.6,8.1-8.1,8.1  S54,32.6,54,28.1C54,23.7,57.6,20.1,62.1,20.1z M25.1,58.1c-4.4,0-8.1-3.6-8.1-8.1c0-4.4,3.6-8.1,8.1-8.1c4.4,0,8.1,3.6,8.1,8.1  C33.2,54.4,29.5,58.1,25.1,58.1z M62.1,79.9c-4.4,0-8.1-3.6-8.1-8.1s3.6-8.1,8.1-8.1s8.1,3.6,8.1,8.1S66.5,79.9,62.1,79.9z"/><text x="0" y="115" fill="#000000" font-size="5px" font-weight="bold" font-family="'Helvetica Neue', Helvetica, Arial-Unicode, Arial, Sans-serif">Created by David Vickhoff</text><text x="0" y="120" fill="#000000" font-size="5px" font-weight="bold" font-family="'Helvetica Neue', Helvetica, Arial-Unicode, Arial, Sans-serif">from the Noun Project</text></svg>